<?xml version="1.0" encoding="UTF-8" standalone="no"?>
<!-- Created with Inkscape (http://www.inkscape.org/) -->

<svg
   xmlns:dc="http://purl.org/dc/elements/1.1/"
   xmlns:cc="http://creativecommons.org/ns#"
   xmlns:rdf="http://www.w3.org/1999/02/22-rdf-syntax-ns#"
   xmlns:svg="http://www.w3.org/2000/svg"
   xmlns="http://www.w3.org/2000/svg"
   xmlns:sodipodi="http://sodipodi.sourceforge.net/DTD/sodipodi-0.dtd"
   xmlns:inkscape="http://www.inkscape.org/namespaces/inkscape"
   width="1052.3622"
   height="744.09448"
   id="svg2"
   version="1.1"
   inkscape:version="0.48.2 r9819"
   sodipodi:docname="fsm.svg">
  <defs
     id="defs4" />
  <sodipodi:namedview
     id="base"
     pagecolor="#ffffff"
     bordercolor="#666666"
     borderopacity="1.0"
     inkscape:pageopacity="0.0"
     inkscape:pageshadow="2"
     inkscape:zoom="1.0555295"
     inkscape:cx="2300.2395"
     inkscape:cy="-116.02983"
     inkscape:document-units="px"
     inkscape:current-layer="g4067"
     showgrid="false"
     inkscape:window-width="1440"
     inkscape:window-height="852"
     inkscape:window-x="0"
     inkscape:window-y="0"
     inkscape:window-maximized="1" />
  <metadata
     id="metadata7">
    <rdf:RDF>
      <cc:Work
         rdf:about="">
        <dc:format>image/svg+xml</dc:format>
        <dc:type
           rdf:resource="http://purl.org/dc/dcmitype/StillImage" />
      </cc:Work>
    </rdf:RDF>
  </metadata>
  <g
     inkscape:label="Layer 1"
     inkscape:groupmode="layer"
     id="layer1"
     transform="translate(0,-308.2677)">
    <g
       id="g4067">
      <g
         id="g4129"
         transform="translate(0,3.32964)">
        <g
           id="g4043"
           transform="translate(0,2.2265636)">
          <g
             transform="matrix(0.99171737,0,0,-0.99171737,-207.77843,2306.1536)"
             id="g4003">
            <g
               id="g4008">
              <path
                 transform="matrix(0.16482223,0,0,0.16482223,1695.7133,1054.22)"
                 d="m 2622.8571,589.80878 c 0,167.26338 -135.5937,302.85714 -302.8571,302.85714 -167.2634,0 -302.8571,-135.59376 -302.8571,-302.85714 0,-167.26339 135.5937,-302.85715 302.8571,-302.85715 167.2634,0 302.8571,135.59376 302.8571,302.85715 z"
                 sodipodi:ry="302.85715"
                 sodipodi:rx="302.85715"
                 sodipodi:cy="589.80878"
                 sodipodi:cx="2320"
                 id="path3997"
                 style="fill:#ffffff;stroke:#000000;stroke-width:6.06714296;stroke-miterlimit:4;stroke-dasharray:none"
                 sodipodi:type="arc" />
              <text
                 transform="scale(1,-1)"
                 sodipodi:linespacing="125%"
                 id="text3999"
                 y="-1136.873"
                 x="2039.9174"
                 style="font-size:40px;font-style:normal;font-weight:normal;line-height:125%;letter-spacing:0px;word-spacing:0px;fill:#000000;fill-opacity:1;stroke:none;font-family:Sans"
                 xml:space="preserve"><tspan
                   y="-1136.873"
                   x="2039.9174"
                   id="tspan4001"
                   sodipodi:role="line">000</tspan></text>
            </g>
          </g>
          <g
             transform="matrix(0.99171737,0,0,-0.99171737,109.67745,2306.1536)"
             id="g4023">
            <g
               id="g4025">
              <path
                 transform="matrix(0.16482223,0,0,0.16482223,1695.7133,1054.22)"
                 d="m 2622.8571,589.80878 c 0,167.26338 -135.5937,302.85714 -302.8571,302.85714 -167.2634,0 -302.8571,-135.59376 -302.8571,-302.85714 0,-167.26339 135.5937,-302.85715 302.8571,-302.85715 167.2634,0 302.8571,135.59376 302.8571,302.85715 z"
                 sodipodi:ry="302.85715"
                 sodipodi:rx="302.85715"
                 sodipodi:cy="589.80878"
                 sodipodi:cx="2320"
                 id="path4027"
                 style="fill:#ffffff;stroke:#000000;stroke-width:6.06714296;stroke-miterlimit:4;stroke-dasharray:none"
                 sodipodi:type="arc" />
              <text
                 transform="scale(1,-1)"
                 sodipodi:linespacing="125%"
                 id="text4029"
                 y="-1136.873"
                 x="2039.9174"
                 style="font-size:40px;font-style:normal;font-weight:normal;line-height:125%;letter-spacing:0px;word-spacing:0px;fill:#000000;fill-opacity:1;stroke:none;font-family:Sans"
                 xml:space="preserve"><tspan
                   y="-1136.873"
                   x="2039.9174"
                   id="tspan4031"
                   sodipodi:role="line">010</tspan></text>
            </g>
          </g>
        </g>
        <g
           id="g4055"
           transform="translate(19.721707,-2.5447364)">
          <g
             id="g4013"
             transform="matrix(0.99171737,0,0,-0.99171737,-68.772197,2181.7795)">
            <g
               id="g4015">
              <path
                 sodipodi:type="arc"
                 style="fill:#ffffff;stroke:#000000;stroke-width:6.06714296;stroke-miterlimit:4;stroke-dasharray:none"
                 id="path4017"
                 sodipodi:cx="2320"
                 sodipodi:cy="589.80878"
                 sodipodi:rx="302.85715"
                 sodipodi:ry="302.85715"
                 d="m 2622.8571,589.80878 c 0,167.26338 -135.5937,302.85714 -302.8571,302.85714 -167.2634,0 -302.8571,-135.59376 -302.8571,-302.85714 0,-167.26339 135.5937,-302.85715 302.8571,-302.85715 167.2634,0 302.8571,135.59376 302.8571,302.85715 z"
                 transform="matrix(0.16482223,0,0,0.16482223,1695.7133,1054.22)" />
              <text
                 transform="scale(1,-1)"
                 xml:space="preserve"
                 style="font-size:40px;font-style:normal;font-weight:normal;line-height:125%;letter-spacing:0px;word-spacing:0px;fill:#000000;fill-opacity:1;stroke:none;font-family:Sans"
                 x="2039.9174"
                 y="-1136.873"
                 id="text4019"
                 sodipodi:linespacing="125%"><tspan
                   sodipodi:role="line"
                   id="tspan4021"
                   x="2039.9174"
                   y="-1136.873">100</tspan></text>
            </g>
          </g>
          <g
             id="g4033"
             transform="matrix(0.99171737,0,0,-0.99171737,-68.772197,2440.0703)">
            <g
               id="g4035">
              <path
                 sodipodi:type="arc"
                 style="fill:#ffffff;stroke:#000000;stroke-width:6.06714296;stroke-miterlimit:4;stroke-dasharray:none"
                 id="path4037"
                 sodipodi:cx="2320"
                 sodipodi:cy="589.80878"
                 sodipodi:rx="302.85715"
                 sodipodi:ry="302.85715"
                 d="m 2622.8571,589.80878 c 0,167.26338 -135.5937,302.85714 -302.8571,302.85714 -167.2634,0 -302.8571,-135.59376 -302.8571,-302.85714 0,-167.26339 135.5937,-302.85715 302.8571,-302.85715 167.2634,0 302.8571,135.59376 302.8571,302.85715 z"
                 transform="matrix(0.16482223,0,0,0.16482223,1695.7133,1054.22)" />
              <text
                 transform="scale(1,-1)"
                 xml:space="preserve"
                 style="font-size:40px;font-style:normal;font-weight:normal;line-height:125%;letter-spacing:0px;word-spacing:0px;fill:#000000;fill-opacity:1;stroke:none;font-family:Sans"
                 x="2039.9174"
                 y="-1136.873"
                 id="text4039"
                 sodipodi:linespacing="125%"><tspan
                   sodipodi:role="line"
                   id="tspan4041"
                   x="2039.9174"
                   y="-1136.873">001</tspan></text>
            </g>
          </g>
        </g>
      </g>
      <g
         id="g4153"
         transform="translate(562.1472,3.32964)">
        <g
           transform="translate(0,2.2265636)"
           id="g4155">
          <g
             id="g4157"
             transform="matrix(0.99171737,0,0,-0.99171737,-207.77843,2306.1536)">
            <g
               id="g4159">
              <path
                 sodipodi:type="arc"
                 style="fill:#ffffff;stroke:#000000;stroke-width:6.06714296;stroke-miterlimit:4;stroke-dasharray:none"
                 id="path4161"
                 sodipodi:cx="2320"
                 sodipodi:cy="589.80878"
                 sodipodi:rx="302.85715"
                 sodipodi:ry="302.85715"
                 d="m 2622.8571,589.80878 c 0,167.26338 -135.5937,302.85714 -302.8571,302.85714 -167.2634,0 -302.8571,-135.59376 -302.8571,-302.85714 0,-167.26339 135.5937,-302.85715 302.8571,-302.85715 167.2634,0 302.8571,135.59376 302.8571,302.85715 z"
                 transform="matrix(0.16482223,0,0,0.16482223,1695.7133,1054.22)" />
              <text
                 xml:space="preserve"
                 style="font-size:40px;font-style:normal;font-weight:normal;line-height:125%;letter-spacing:0px;word-spacing:0px;fill:#000000;fill-opacity:1;stroke:none;font-family:Sans"
                 x="2039.9174"
                 y="-1136.873"
                 id="text4163"
                 sodipodi:linespacing="125%"
                 transform="scale(1,-1)"><tspan
                   sodipodi:role="line"
                   id="tspan4165"
                   x="2039.9174"
                   y="-1136.873">101</tspan></text>
            </g>
          </g>
          <g
             id="g4167"
             transform="matrix(0.99171737,0,0,-0.99171737,109.67745,2306.1536)">
            <g
               id="g4169">
              <path
                 sodipodi:type="arc"
                 style="fill:#ffffff;stroke:#000000;stroke-width:6.06714296;stroke-miterlimit:4;stroke-dasharray:none"
                 id="path4171"
                 sodipodi:cx="2320"
                 sodipodi:cy="589.80878"
                 sodipodi:rx="302.85715"
                 sodipodi:ry="302.85715"
                 d="m 2622.8571,589.80878 c 0,167.26338 -135.5937,302.85714 -302.8571,302.85714 -167.2634,0 -302.8571,-135.59376 -302.8571,-302.85714 0,-167.26339 135.5937,-302.85715 302.8571,-302.85715 167.2634,0 302.8571,135.59376 302.8571,302.85715 z"
                 transform="matrix(0.16482223,0,0,0.16482223,1695.7133,1054.22)" />
              <text
                 xml:space="preserve"
                 style="font-size:40px;font-style:normal;font-weight:normal;line-height:125%;letter-spacing:0px;word-spacing:0px;fill:#000000;fill-opacity:1;stroke:none;font-family:Sans"
                 x="2039.9174"
                 y="-1136.873"
                 id="text4173"
                 sodipodi:linespacing="125%"
                 transform="scale(1,-1)"><tspan
                   sodipodi:role="line"
                   id="tspan4175"
                   x="2039.9174"
                   y="-1136.873">111</tspan></text>
            </g>
          </g>
        </g>
        <g
           transform="translate(19.721707,-2.5447364)"
           id="g4177">
          <g
             transform="matrix(0.99171737,0,0,-0.99171737,-68.772197,2181.7795)"
             id="g4179">
            <g
               id="g4181">
              <path
                 transform="matrix(0.16482223,0,0,0.16482223,1695.7133,1054.22)"
                 d="m 2622.8571,589.80878 c 0,167.26338 -135.5937,302.85714 -302.8571,302.85714 -167.2634,0 -302.8571,-135.59376 -302.8571,-302.85714 0,-167.26339 135.5937,-302.85715 302.8571,-302.85715 167.2634,0 302.8571,135.59376 302.8571,302.85715 z"
                 sodipodi:ry="302.85715"
                 sodipodi:rx="302.85715"
                 sodipodi:cy="589.80878"
                 sodipodi:cx="2320"
                 id="path4183"
                 style="fill:#ffffff;stroke:#000000;stroke-width:6.06714296;stroke-miterlimit:4;stroke-dasharray:none"
                 sodipodi:type="arc" />
              <text
                 sodipodi:linespacing="125%"
                 id="text4185"
                 y="-1136.873"
                 x="2039.9174"
                 style="font-size:40px;font-style:normal;font-weight:normal;line-height:125%;letter-spacing:0px;word-spacing:0px;fill:#000000;fill-opacity:1;stroke:none;font-family:Sans"
                 xml:space="preserve"
                 transform="scale(1,-1)"><tspan
                   y="-1136.873"
                   x="2039.9174"
                   id="tspan4187"
                   sodipodi:role="line">110</tspan></text>
            </g>
          </g>
          <g
             transform="matrix(0.99171737,0,0,-0.99171737,-68.772197,2440.0703)"
             id="g4189">
            <g
               id="g4191">
              <path
                 transform="matrix(0.16482223,0,0,0.16482223,1695.7133,1054.22)"
                 d="m 2622.8571,589.80878 c 0,167.26338 -135.5937,302.85714 -302.8571,302.85714 -167.2634,0 -302.8571,-135.59376 -302.8571,-302.85714 0,-167.26339 135.5937,-302.85715 302.8571,-302.85715 167.2634,0 302.8571,135.59376 302.8571,302.85715 z"
                 sodipodi:ry="302.85715"
                 sodipodi:rx="302.85715"
                 sodipodi:cy="589.80878"
                 sodipodi:cx="2320"
                 id="path4193"
                 style="fill:#ffffff;stroke:#000000;stroke-width:6.06714296;stroke-miterlimit:4;stroke-dasharray:none"
                 sodipodi:type="arc" />
              <text
                 sodipodi:linespacing="125%"
                 id="text4195"
                 y="-1136.873"
                 x="2039.9174"
                 style="font-size:40px;font-style:normal;font-weight:normal;line-height:125%;letter-spacing:0px;word-spacing:0px;fill:#000000;fill-opacity:1;stroke:none;font-family:Sans"
                 xml:space="preserve"
                 transform="scale(1,-1)"><tspan
                   y="-1136.873"
                   x="2039.9174"
                   id="tspan4197"
                   sodipodi:role="line">011</tspan></text>
            </g>
          </g>
        </g>
      </g>
    </g>
  </g>
</svg>
